<?xml version="1.0" encoding="utf-8"?>
<!-- Generator: Adobe Illustrator 16.0.0, SVG Export Plug-In . SVG Version: 6.00 Build 0)  -->
<!DOCTYPE svg PUBLIC "-//W3C//DTD SVG 1.1//EN" "http://www.w3.org/Graphics/SVG/1.1/DTD/svg11.dtd">
<svg version="1.1" id="Capa_1" xmlns="http://www.w3.org/2000/svg" xmlns:xlink="http://www.w3.org/1999/xlink" x="0px" y="0px"
	 width="430.117px" height="430.117px" viewBox="0 0 430.117 430.117" enable-background="new 0 0 430.117 430.117"
	 xml:space="preserve">
<g>
	<path id="Twitter__x28_alt_x29_" fill="#FFFFFF" d="M381.384,198.639c24.157-1.993,40.543-12.975,46.85-27.876
		c-8.715,5.353-35.765,11.189-50.704,5.631c-0.731-3.51-1.549-6.844-2.353-9.854c-11.383-41.798-50.356-75.472-91.194-71.404
		c3.305-1.334,6.656-2.576,9.996-3.691c4.496-1.61,30.869-5.901,26.715-15.21c-3.5-8.188-35.721,6.188-41.789,8.067
		c8.01-3.012,21.255-8.193,22.674-17.396c-12.27,1.683-24.314,7.484-33.622,15.919c3.36-3.617,5.909-8.025,6.45-12.769
		C241.68,90.963,222.562,133.113,207.092,174c-12.148-11.773-22.915-21.044-32.574-26.192
		c-27.097-14.531-59.496-29.692-110.355-48.572c-1.561,16.827,8.322,39.201,36.8,54.08c-6.17-0.826-17.453,1.017-26.477,3.178
		c3.675,19.277,15.677,35.159,48.169,42.839c-14.849,0.98-22.523,4.359-29.478,11.642c6.763,13.407,23.266,29.186,52.953,25.947
		c-33.006,14.227-13.458,40.571,13.399,36.643C113.713,320.887,41.479,317.409,0,277.828
		c108.299,147.572,343.716,87.273,378.799-54.866c26.285,0.224,41.737-9.105,51.318-19.39
		C414.973,206.142,393.023,203.486,381.384,198.639z"/>
</g>
</svg>
